<mxfile host="app.diagrams.net" modified="2024-04-04T13:35:01.753Z" agent="Mozilla/5.0 (Macintosh; Intel Mac OS X 10_15_7) AppleWebKit/537.36 (KHTML, like Gecko) Chrome/123.0.0.0 Safari/537.36" etag="b3H8Yo8uUxNKvP8ZnsS-" version="24.2.2" type="github">
  <diagram name="Page-1" id="fEaSrElfvcWs7XYuGYCs">
    <mxGraphModel dx="954" dy="492" grid="1" gridSize="10" guides="1" tooltips="1" connect="1" arrows="1" fold="1" page="1" pageScale="1" pageWidth="823" pageHeight="365" math="0" shadow="0">
      <root>
        <mxCell id="0" />
        <mxCell id="1" parent="0" />
        <mxCell id="GY6aXAsfJdgFhlDoT_iA-1" value="" style="rounded=0;whiteSpace=wrap;html=1;" vertex="1" parent="1">
          <mxGeometry x="110" y="70" width="150" height="200" as="geometry" />
        </mxCell>
        <mxCell id="GY6aXAsfJdgFhlDoT_iA-2" value="Docker Client" style="rounded=1;whiteSpace=wrap;html=1;" vertex="1" parent="1">
          <mxGeometry x="125" y="60" width="120" height="30" as="geometry" />
        </mxCell>
        <mxCell id="GY6aXAsfJdgFhlDoT_iA-3" value="" style="rounded=0;whiteSpace=wrap;html=1;" vertex="1" parent="1">
          <mxGeometry x="350" y="70" width="200" height="200" as="geometry" />
        </mxCell>
        <mxCell id="GY6aXAsfJdgFhlDoT_iA-4" value="Docker Host" style="rounded=1;whiteSpace=wrap;html=1;" vertex="1" parent="1">
          <mxGeometry x="387.5" y="60" width="120" height="30" as="geometry" />
        </mxCell>
        <mxCell id="GY6aXAsfJdgFhlDoT_iA-5" value="" style="rounded=0;whiteSpace=wrap;html=1;" vertex="1" parent="1">
          <mxGeometry x="610" y="70" width="150" height="200" as="geometry" />
        </mxCell>
        <mxCell id="GY6aXAsfJdgFhlDoT_iA-6" value="Docker Registry" style="rounded=1;whiteSpace=wrap;html=1;" vertex="1" parent="1">
          <mxGeometry x="625" y="60" width="120" height="30" as="geometry" />
        </mxCell>
        <mxCell id="GY6aXAsfJdgFhlDoT_iA-7" value="docker build" style="rounded=1;whiteSpace=wrap;html=1;" vertex="1" parent="1">
          <mxGeometry x="125" y="110" width="115" height="30" as="geometry" />
        </mxCell>
        <mxCell id="GY6aXAsfJdgFhlDoT_iA-8" value="docker pull" style="rounded=1;whiteSpace=wrap;html=1;" vertex="1" parent="1">
          <mxGeometry x="125" y="155" width="115" height="30" as="geometry" />
        </mxCell>
        <mxCell id="GY6aXAsfJdgFhlDoT_iA-9" value="docker run" style="rounded=1;whiteSpace=wrap;html=1;" vertex="1" parent="1">
          <mxGeometry x="125" y="210" width="115" height="30" as="geometry" />
        </mxCell>
        <mxCell id="GY6aXAsfJdgFhlDoT_iA-10" value="Docker Daemon" style="rounded=1;whiteSpace=wrap;html=1;" vertex="1" parent="1">
          <mxGeometry x="392.5" y="105" width="115" height="40" as="geometry" />
        </mxCell>
        <mxCell id="GY6aXAsfJdgFhlDoT_iA-11" value="" style="rounded=0;whiteSpace=wrap;html=1;" vertex="1" parent="1">
          <mxGeometry x="360" y="170" width="80" height="90" as="geometry" />
        </mxCell>
        <mxCell id="GY6aXAsfJdgFhlDoT_iA-12" value="" style="rounded=0;whiteSpace=wrap;html=1;" vertex="1" parent="1">
          <mxGeometry x="460" y="170" width="80" height="90" as="geometry" />
        </mxCell>
        <mxCell id="GY6aXAsfJdgFhlDoT_iA-13" value="Containers&lt;span style=&quot;color: rgba(0, 0, 0, 0); font-family: monospace; font-size: 0px; text-align: start; text-wrap: nowrap;&quot;&gt;%3CmxGraphModel%3E%3Croot%3E%3CmxCell%20id%3D%220%22%2F%3E%3CmxCell%20id%3D%221%22%20parent%3D%220%22%2F%3E%3CmxCell%20id%3D%222%22%20value%3D%22%22%20style%3D%22rounded%3D0%3BwhiteSpace%3Dwrap%3Bhtml%3D1%3B%22%20vertex%3D%221%22%20parent%3D%221%22%3E%3CmxGeometry%20x%3D%22360%22%20y%3D%22170%22%20width%3D%2268%22%20height%3D%2290%22%20as%3D%22geometry%22%2F%3E%3C%2FmxCell%3E%3C%2Froot%3E%3C%2FmxGraphModel%3E&lt;/span&gt;" style="rounded=1;whiteSpace=wrap;html=1;" vertex="1" parent="1">
          <mxGeometry x="360" y="160" width="80" height="30" as="geometry" />
        </mxCell>
        <mxCell id="GY6aXAsfJdgFhlDoT_iA-14" value="Images" style="rounded=1;whiteSpace=wrap;html=1;" vertex="1" parent="1">
          <mxGeometry x="460" y="160" width="80" height="30" as="geometry" />
        </mxCell>
        <mxCell id="GY6aXAsfJdgFhlDoT_iA-16" value="" style="outlineConnect=0;dashed=0;verticalLabelPosition=bottom;verticalAlign=top;align=center;html=1;shape=mxgraph.aws3.ec2_compute_container;fillColor=#000000;gradientColor=none;" vertex="1" parent="1">
          <mxGeometry x="375" y="197.5" width="50" height="20" as="geometry" />
        </mxCell>
        <mxCell id="GY6aXAsfJdgFhlDoT_iA-17" value="" style="outlineConnect=0;dashed=0;verticalLabelPosition=bottom;verticalAlign=top;align=center;html=1;shape=mxgraph.aws3.ec2_compute_container;fillColor=#000000;gradientColor=none;" vertex="1" parent="1">
          <mxGeometry x="375" y="232.5" width="50" height="20" as="geometry" />
        </mxCell>
        <mxCell id="GY6aXAsfJdgFhlDoT_iA-18" value="" style="shape=image;html=1;verticalAlign=top;verticalLabelPosition=bottom;labelBackgroundColor=#ffffff;imageAspect=0;aspect=fixed;image=https://cdn1.iconfinder.com/data/icons/operating-system-flat-1/30/ubuntu-128.png" vertex="1" parent="1">
          <mxGeometry x="467.5" y="195" width="25" height="25" as="geometry" />
        </mxCell>
        <mxCell id="GY6aXAsfJdgFhlDoT_iA-19" value="" style="dashed=0;outlineConnect=0;html=1;align=center;labelPosition=center;verticalLabelPosition=bottom;verticalAlign=top;shape=mxgraph.weblogos.java" vertex="1" parent="1">
          <mxGeometry x="500" y="190" width="24" height="40" as="geometry" />
        </mxCell>
        <mxCell id="GY6aXAsfJdgFhlDoT_iA-20" value="" style="shape=image;html=1;verticalAlign=top;verticalLabelPosition=bottom;labelBackgroundColor=#ffffff;imageAspect=0;aspect=fixed;image=https://cdn1.iconfinder.com/data/icons/operating-system-flat-1/30/ubuntu-128.png" vertex="1" parent="1">
          <mxGeometry x="630" y="110" width="25" height="25" as="geometry" />
        </mxCell>
        <mxCell id="GY6aXAsfJdgFhlDoT_iA-21" value="" style="dashed=0;outlineConnect=0;html=1;align=center;labelPosition=center;verticalLabelPosition=bottom;verticalAlign=top;shape=mxgraph.weblogos.java" vertex="1" parent="1">
          <mxGeometry x="673.56" y="102.5" width="24" height="40" as="geometry" />
        </mxCell>
        <mxCell id="GY6aXAsfJdgFhlDoT_iA-22" value="" style="shape=image;verticalLabelPosition=bottom;labelBackgroundColor=default;verticalAlign=top;aspect=fixed;imageAspect=0;image=data:image/png,iVBORw0KGgoAAAANSUhEUgAAAUMAAACcCAMAAADS8jl7AAAAw1BMVEX///9ORUDtHkhFOzXsADU7MCnsADntG0bsADfvO1z5wck5LSbu7e2opKNIPjlCNzH+7/LtEEKUkI384+fycITwW3L0jJza2dj60ti6t7aKhYN/enfk4+P4+Pc3KyN2cG2cmJbKyMdmX1tvaWWDfnvU09KxrqxWTkleVlLy8fHAvr2Tj43sAC/rACCloZ9SSUQvIRj0k6HwUmzzgZL83uL2qLPuMVX71NrrACj4usP96+7zeozxZ3zvRmMoGAwrGxAcAADkJJuCAAANuUlEQVR4nO2de3/bJhfHpRLSdLJh8da6liVZ8kW+ZXLWdl3Xde3z/l/VowuHu1I7eB9vM79/OsuA4MsBDgfiBcGF9OHX16+c9e7920vV/x+gnx/uX55B9zevPl+6KZfSq9sXZ9L97ZVC/PlsCGuIHy/dmovow8P5EL54cfvbpdtzCb25PyfDl68u3Z5L6K+zMnzxcOn2XEIfX56V4c2Pl27QBfTKM3SWZ+guz9BdnqG7PEN3eYbu8gzd5Rm6yzN0l43h/d3NMbq1ZPUMGYc3H346Qh9+u7fk9QxbDEfH9NMXZmbPsBnIb47P/IMRv/UMG939fkLuG88wsDC8+emE3J5hI8/QXS9u7lT98uGE3L8Yua+RoZeXl5eX17n05bWmd6f4Nu/03H9d47r88V7Twym+zYOR+xoZeh/bXZ6huzxDd3mG7vIM3eUZusszdJdn6C7P0F2eobs8Q3d5hu7yDN3lGbrLM3SX49nonT8bDYLf3+pKT8htZL7mv2H28vLyunr9+kbT+1N+T+C9kfsa1+WPt9rp5qdTfJtP+tnop2tk6H1sd3mG7jIY3v5xfObPnmEjg+EpP2vxp/FjEJ5hq/vXx3J4c6fn9QwB4t3rn4/Ql3vLT5J4hpziUbLl9Azd5Rl6hs+SZ+guz9BdnqG7PEN3eYbu8gzd5Rm668wMr/LvU76c97dMby/dnkvojzP+LHG90f7z0u25iF6eczA/nBIE/+/o7Rl/3Pnm10u35kL64eFMU+L9wwk/jfMf0+cvD3e3zrp7+OuqLyz9+PYHd13p/yvAy8vLy8vLy8vLy8vLy8vL63qVbjud8oeEXqqqR9zoMb50Rf7FGqKwERlduiL/Yl0Nw7xqlf8Nk9bVMHxErR49w+cratsZRp7h8+UZusszdJdn6C7P0F2eobs8Q3f9Exkm5XKDInqY5YX+VTpmYh8nyzXFZJGv+ksrRnOCcbgwC4OyurYn+YJEdL2cbK3FpEU+nc/n03w30OtDO4Z0xcpLtNfshqN4Ge+HhfaFrO1u31STzOOJXL6V4RYqvrJXNQgmmwiRLieidDRQvhx8beMY+Gv7KY8o6RLiw87e8hxTQqCwSrWUrij8rWlaMmdvJTTbmwaVTDOK6oJIXUy0rnilmvowhDXErrxsKdW3XES4yUmanDjMB0bRjVazDKpZv38hLMLKcMMqns2thQVFyKvUCmW5/PUAs3HTtIsgKSGeWzqlxEgpjCq2CDlrhmVGpGRIN5i9/HVTqSWkUJ53IjxQVUDHSDn3Zi0Hi0hJRfAC2mJjGLM2kbUdYRwZVUJrqe8khqtMqzod66VNsV5YlFsZVtprMwViuqF6OSRjrZqaEDnDEFsIo1DvoF1kJCO46GU4gUZR+0ieI720tkABRzAcm7Sj5PulYckO4NFgYpSF5OG8saAIaTdiK/MdnOHelq/OqVazymyJsrKHYQJ1zQyT6UdYK+LJgSFObfVTWh4srKXhUmeICsNcQyShHhlW2NapGx2F+SVnODbL7STXctiTCKdWhil//8SKcMob3cy/VJpKEJgtMCRTtgDUU7pIRhZSaTm0jmC6PoiZX4xTteWUSiWFmVg2wE7qhWtN4HWogm8Jz0U6oVh7Qf0IyfOi3EGFsMJm1ePJmJUZDBcsAc2tCPlAr9eHcpWsygV/wOEAw5C0cOJiPN4txbSDxZoxhsrhWVOddHdgqQhfzSSCiIwmxWSPeC8Co7ov2DNaNpaxLZbtOkV4o2YzKHjWacGzNgMdYbrYV2UVr0U1RQelvGvrhaTc7cpptwrCaNEZViw9mlkRbjmeNQzd8QbahHcaw6ZRUzZ0BwteE7FUzVmNhc3PkAZaFBUN2aM9L38D2dYsFzffbY4Jll0p8LGNJiUZPlR8Hkr4EodyeLYErnTGuKajqOmOwMqwiACRFaFYsmWvB9oN/S4xxJWZN8TgWq1g4pSmDYaVv0AgFObLZwDYdaRdtYnsk2ynG+nTE/uUper7i5HGHvCFEeci1bge0PDfKsMtVA7Zl+QtjD0VMZgT7VgIhkg5LoRpgizVB2QqJeKLOjMpXpTUgGADrWL2k2D5/SAF1/F7PZgXwKjBM0KK17gVNq8yBAehZ0nmToLmoPARvlEwhOHBnowNqAFrV6Z02Kh7B2IjF4rCcuN3sHNjtskYQh6bTtgvw9zaTQVbMMNNX3qFIYy2yL4nC4KDZkgglS1nSLXdL5/5u9FTIltpjAcMZlYUUSw6ZW8Aw0vAE+gndAJD5jKyHpmw/sK9232ZIcwEPUuyqCrWzRTahNqVaqDPKCD4gtWOrZU66bVirNAdE1sa/hQYru1b3eAkhszK2diEFb3XDGWGCZvs0LQvMQyhg/HNVJ7ZOKpcTzZX7BiMV2sWG8yso4Ch2m2AHxjCVCsWb10nMGQxHmb6MG2UveklhqwWpB94TuQOkgV0W8sDhtSwfhjMGzmZ/j5WFpuOWLlYnYGnGkP+/hD1NPZphoOirPI8L3fNa9jWpWPIx15/TAwY7nlX9izJcs3N6RLelLUVgtcaJfG1oPmwUrpbiJkBG/DHMQzW0n4J55YmPMFwWx0i2p7gU4qj2ouWKwb7RNxLhTPMhyytHhOQtemzLz4h4WY+4nZopILNKZZrN9/HsvZLxdqPZJjIEQmUxca82M8wz5Q9e72bCyWGsKT0j05gGM6/tyQ3Oljb04pIXwFD00/nAyOVagdbWC72tJs0j2RYd48c4CBZrMHqY2iJmUEZLUNwHuz7tlZDpQ9CWvUnleJQ5leAt5n6+yY6OaJTf5j0BICgCVPlnd9jGAxUGAir1tDH8CCjtzCEgdq70OoM2yV52+up2tujfHVGhrPTGDYRKqVErPidPQx5GIo0Qag2EuXGsFuS11nfqnLiWDZdIPtY7mF42lhulOYKRSqPPzvDFUyjdN4dYw1W1QaczWeNZdLAm5Ne5rCmGIdv3MlW1hRzKRvLixyPjNbLoUX4dIZ1PcpQCjBSaYdrZwgONJYdIsVhOGFNactv6tkElqOe7TKrOTI9MLtvY8yb4NsguapP9HBwKsOgOWOSYoCiIVaGLN6jOdAD2T883rdpi2/Mq5sfeqDnljhLJ4CzlupgsdeRHNiCkAPRUyk6mWFt7TwuLNXUyrCQq82VPM/HDtmSHNMn6qa6yIrAp2tfO1AmFFlr5Qvy3doFz2IoTRMZf2RlWKoxIibFDmGvZxl8IM4QNdPP+BE+WRNzA9OdyFT5gsccdPuHPmX16Z8aJD2LYTCAEcgHs5Uh23tqA0axQ75/64lKB4Ih2yXzeGNuTc0WZqM8KCVra8gZ6vG8WLU8vjD31i54LkOwMEHHypBFubSNl7oJLSFgZ66kWuvDruwBPxi1BpEgTqjt6yH8zZYHEftSd8x8P8ZmQG69TxnikQwHmt/HdpUGQ2xlqOJh1skYciRaV4s/i9LPpEZgl9bVkp8FqBFEMHcWphQMlWMXmA1DBC+Dwx59j55Lx6dHMlwQ1ZdgtkT1sayWw2xCG3WAgE3n4P+oMcHtgX/UGfJzwEiy71Wesxlwz8+VpCqDrw/EpDMpJGikcOoikEHEUrtVMKNURNeOYzjBYaZE5JiFRXwgMIYqLphNFNcg1hjyMykqbXzGiGCYqYzz5RIg8jkvnWfxiDU85Xgi2FmP18AVvDH5bJSEbJwU/JhcOqTnp46Sj7trjsDFSd9RDNtqIWlx4rci+BOqvqlo/+GLnORBiGsD8BAMMURr1phBe+Uo671vA+sG7+PNbJskwfBr26Xi5BDReFLs+M6ozgBlKGf09b5hPxzGRGzspLtG4vSbkmqVbJMiZwkzGAZHMWStRFHc7NjScWxG0jf8TWg2nWN2tYs3Fo7Bx+IYnDPcirgaDePhMJ+zC0xsE2Ey5F3IvMAiCoabxSyYdvVZCqe8vTchPvG5j/uHcPapXMJQTmuke2GouRkoygPSxzDciQmY4iiK+HZP2vlLd5Oa8BprMB91JJqWu0m+kSJowr3dScHJ5kqJ+GS/byNWCDb170fBcBI8Bis2uO23jEJy4OuUiM5YkqrLTDCxXqiq6cCAP4bhrOdKkRzJW6lpoMEyHNrRQXDqIwZ4ZX8BWfcxTFT/Jq6CEn/bBWOYeGe2eAvaCKdB3J1LjHdLqJ+CKOJW8ODJsVyatwNDZUELxEWCUGnw2Hg9mloOKfS7j6zN3Ze2O5ww03f+TTkPqjKvQfK1PM+MGkfytk66wzmmalI6N2LxK2RYK8mMu3PfWZcHC/MqJlUQqqcFosGFBpHOYKeobFV3Zvm8n20M+X2E1t9LvxbJOCi334SzM56rgXe8Vhx9+S7xdi6ZIopsYfJ0H6kHGtFMcvCPY1h3xUItBRmnpGO5s8Q10bF8MZpkVWBlGGynqq1Twh1zxlC9S8LvjbZTYPG/PEkmj0qK1VRcAo8W2i5IZlj34CZqk9YL0L7nBH2QE14cprHiLbNo4qPKcIbbp5m810uqdfem9mJ6ZQaS0xw1seq6ItFGzliGGLK1Z1nFoxzA5KpXe8zbLBdQZW36SL3FDVHRrO3LZJY9bvTdYloM49liFleFMTpVhnX+yWi5jIdP/GlFm2a6WEz3ZU/o8jgNimHzqnzSFwoa74ZVVRY633HZ1tBsiqZV2+al+qcbf4t0hl6nyzN0l2foLs/QXZ6huzxDd3mG7vIM3cXvql+6Iv9iDQ6bVuZ9G6//AxsuRn8XGT83AAAAAElFTkSuQmCC;" vertex="1" parent="1">
          <mxGeometry x="467.5" y="232.5" width="41.41" height="20" as="geometry" />
        </mxCell>
        <mxCell id="GY6aXAsfJdgFhlDoT_iA-23" value="" style="shape=image;verticalLabelPosition=bottom;labelBackgroundColor=default;verticalAlign=top;aspect=fixed;imageAspect=0;image=data:image/png,iVBORw0KGgoAAAANSUhEUgAAAUMAAACcCAMAAADS8jl7AAAAw1BMVEX///9ORUDtHkhFOzXsADU7MCnsADntG0bsADfvO1z5wck5LSbu7e2opKNIPjlCNzH+7/LtEEKUkI384+fycITwW3L0jJza2dj60ti6t7aKhYN/enfk4+P4+Pc3KyN2cG2cmJbKyMdmX1tvaWWDfnvU09KxrqxWTkleVlLy8fHAvr2Tj43sAC/rACCloZ9SSUQvIRj0k6HwUmzzgZL83uL2qLPuMVX71NrrACj4usP96+7zeozxZ3zvRmMoGAwrGxAcAADkJJuCAAANuUlEQVR4nO2de3/bJhfHpRLSdLJh8da6liVZ8kW+ZXLWdl3Xde3z/l/VowuHu1I7eB9vM79/OsuA4MsBDgfiBcGF9OHX16+c9e7920vV/x+gnx/uX55B9zevPl+6KZfSq9sXZ9L97ZVC/PlsCGuIHy/dmovow8P5EL54cfvbpdtzCb25PyfDl68u3Z5L6K+zMnzxcOn2XEIfX56V4c2Pl27QBfTKM3SWZ+guz9BdnqG7PEN3eYbu8gzd5Rm6yzN0l43h/d3NMbq1ZPUMGYc3H346Qh9+u7fk9QxbDEfH9NMXZmbPsBnIb47P/IMRv/UMG939fkLuG88wsDC8+emE3J5hI8/QXS9u7lT98uGE3L8Yua+RoZeXl5eX17n05bWmd6f4Nu/03H9d47r88V7Twym+zYOR+xoZeh/bXZ6huzxDd3mG7vIM3eUZusszdJdn6C7P0F2eobs8Q3d5hu7yDN3lGbrLM3SX49nonT8bDYLf3+pKT8htZL7mv2H28vLyunr9+kbT+1N+T+C9kfsa1+WPt9rp5qdTfJtP+tnop2tk6H1sd3mG7jIY3v5xfObPnmEjg+EpP2vxp/FjEJ5hq/vXx3J4c6fn9QwB4t3rn4/Ql3vLT5J4hpziUbLl9Azd5Rl6hs+SZ+guz9BdnqG7PEN3eYbu8gzd5Rm668wMr/LvU76c97dMby/dnkvojzP+LHG90f7z0u25iF6eczA/nBIE/+/o7Rl/3Pnm10u35kL64eFMU+L9wwk/jfMf0+cvD3e3zrp7+OuqLyz9+PYHd13p/yvAy8vLy8vLy8vLy8vLy8vL63qVbjud8oeEXqqqR9zoMb50Rf7FGqKwERlduiL/Yl0Nw7xqlf8Nk9bVMHxErR49w+cratsZRp7h8+UZusszdJdn6C7P0F2eobs8Q3f9Exkm5XKDInqY5YX+VTpmYh8nyzXFZJGv+ksrRnOCcbgwC4OyurYn+YJEdL2cbK3FpEU+nc/n03w30OtDO4Z0xcpLtNfshqN4Ge+HhfaFrO1u31STzOOJXL6V4RYqvrJXNQgmmwiRLieidDRQvhx8beMY+Gv7KY8o6RLiw87e8hxTQqCwSrWUrij8rWlaMmdvJTTbmwaVTDOK6oJIXUy0rnilmvowhDXErrxsKdW3XES4yUmanDjMB0bRjVazDKpZv38hLMLKcMMqns2thQVFyKvUCmW5/PUAs3HTtIsgKSGeWzqlxEgpjCq2CDlrhmVGpGRIN5i9/HVTqSWkUJ53IjxQVUDHSDn3Zi0Hi0hJRfAC2mJjGLM2kbUdYRwZVUJrqe8khqtMqzod66VNsV5YlFsZVtprMwViuqF6OSRjrZqaEDnDEFsIo1DvoF1kJCO46GU4gUZR+0ieI720tkABRzAcm7Sj5PulYckO4NFgYpSF5OG8saAIaTdiK/MdnOHelq/OqVazymyJsrKHYQJ1zQyT6UdYK+LJgSFObfVTWh4srKXhUmeICsNcQyShHhlW2NapGx2F+SVnODbL7STXctiTCKdWhil//8SKcMob3cy/VJpKEJgtMCRTtgDUU7pIRhZSaTm0jmC6PoiZX4xTteWUSiWFmVg2wE7qhWtN4HWogm8Jz0U6oVh7Qf0IyfOi3EGFsMJm1ePJmJUZDBcsAc2tCPlAr9eHcpWsygV/wOEAw5C0cOJiPN4txbSDxZoxhsrhWVOddHdgqQhfzSSCiIwmxWSPeC8Co7ov2DNaNpaxLZbtOkV4o2YzKHjWacGzNgMdYbrYV2UVr0U1RQelvGvrhaTc7cpptwrCaNEZViw9mlkRbjmeNQzd8QbahHcaw6ZRUzZ0BwteE7FUzVmNhc3PkAZaFBUN2aM9L38D2dYsFzffbY4Jll0p8LGNJiUZPlR8Hkr4EodyeLYErnTGuKajqOmOwMqwiACRFaFYsmWvB9oN/S4xxJWZN8TgWq1g4pSmDYaVv0AgFObLZwDYdaRdtYnsk2ynG+nTE/uUper7i5HGHvCFEeci1bge0PDfKsMtVA7Zl+QtjD0VMZgT7VgIhkg5LoRpgizVB2QqJeKLOjMpXpTUgGADrWL2k2D5/SAF1/F7PZgXwKjBM0KK17gVNq8yBAehZ0nmToLmoPARvlEwhOHBnowNqAFrV6Z02Kh7B2IjF4rCcuN3sHNjtskYQh6bTtgvw9zaTQVbMMNNX3qFIYy2yL4nC4KDZkgglS1nSLXdL5/5u9FTIltpjAcMZlYUUSw6ZW8Aw0vAE+gndAJD5jKyHpmw/sK9232ZIcwEPUuyqCrWzRTahNqVaqDPKCD4gtWOrZU66bVirNAdE1sa/hQYru1b3eAkhszK2diEFb3XDGWGCZvs0LQvMQyhg/HNVJ7ZOKpcTzZX7BiMV2sWG8yso4Ch2m2AHxjCVCsWb10nMGQxHmb6MG2UveklhqwWpB94TuQOkgV0W8sDhtSwfhjMGzmZ/j5WFpuOWLlYnYGnGkP+/hD1NPZphoOirPI8L3fNa9jWpWPIx15/TAwY7nlX9izJcs3N6RLelLUVgtcaJfG1oPmwUrpbiJkBG/DHMQzW0n4J55YmPMFwWx0i2p7gU4qj2ouWKwb7RNxLhTPMhyytHhOQtemzLz4h4WY+4nZopILNKZZrN9/HsvZLxdqPZJjIEQmUxca82M8wz5Q9e72bCyWGsKT0j05gGM6/tyQ3Oljb04pIXwFD00/nAyOVagdbWC72tJs0j2RYd48c4CBZrMHqY2iJmUEZLUNwHuz7tlZDpQ9CWvUnleJQ5leAt5n6+yY6OaJTf5j0BICgCVPlnd9jGAxUGAir1tDH8CCjtzCEgdq70OoM2yV52+up2tujfHVGhrPTGDYRKqVErPidPQx5GIo0Qag2EuXGsFuS11nfqnLiWDZdIPtY7mF42lhulOYKRSqPPzvDFUyjdN4dYw1W1QaczWeNZdLAm5Ne5rCmGIdv3MlW1hRzKRvLixyPjNbLoUX4dIZ1PcpQCjBSaYdrZwgONJYdIsVhOGFNactv6tkElqOe7TKrOTI9MLtvY8yb4NsguapP9HBwKsOgOWOSYoCiIVaGLN6jOdAD2T883rdpi2/Mq5sfeqDnljhLJ4CzlupgsdeRHNiCkAPRUyk6mWFt7TwuLNXUyrCQq82VPM/HDtmSHNMn6qa6yIrAp2tfO1AmFFlr5Qvy3doFz2IoTRMZf2RlWKoxIibFDmGvZxl8IM4QNdPP+BE+WRNzA9OdyFT5gsccdPuHPmX16Z8aJD2LYTCAEcgHs5Uh23tqA0axQ75/64lKB4Ih2yXzeGNuTc0WZqM8KCVra8gZ6vG8WLU8vjD31i54LkOwMEHHypBFubSNl7oJLSFgZ66kWuvDruwBPxi1BpEgTqjt6yH8zZYHEftSd8x8P8ZmQG69TxnikQwHmt/HdpUGQ2xlqOJh1skYciRaV4s/i9LPpEZgl9bVkp8FqBFEMHcWphQMlWMXmA1DBC+Dwx59j55Lx6dHMlwQ1ZdgtkT1sayWw2xCG3WAgE3n4P+oMcHtgX/UGfJzwEiy71Wesxlwz8+VpCqDrw/EpDMpJGikcOoikEHEUrtVMKNURNeOYzjBYaZE5JiFRXwgMIYqLphNFNcg1hjyMykqbXzGiGCYqYzz5RIg8jkvnWfxiDU85Xgi2FmP18AVvDH5bJSEbJwU/JhcOqTnp46Sj7trjsDFSd9RDNtqIWlx4rci+BOqvqlo/+GLnORBiGsD8BAMMURr1phBe+Uo671vA+sG7+PNbJskwfBr26Xi5BDReFLs+M6ozgBlKGf09b5hPxzGRGzspLtG4vSbkmqVbJMiZwkzGAZHMWStRFHc7NjScWxG0jf8TWg2nWN2tYs3Fo7Bx+IYnDPcirgaDePhMJ+zC0xsE2Ey5F3IvMAiCoabxSyYdvVZCqe8vTchPvG5j/uHcPapXMJQTmuke2GouRkoygPSxzDciQmY4iiK+HZP2vlLd5Oa8BprMB91JJqWu0m+kSJowr3dScHJ5kqJ+GS/byNWCDb170fBcBI8Bis2uO23jEJy4OuUiM5YkqrLTDCxXqiq6cCAP4bhrOdKkRzJW6lpoMEyHNrRQXDqIwZ4ZX8BWfcxTFT/Jq6CEn/bBWOYeGe2eAvaCKdB3J1LjHdLqJ+CKOJW8ODJsVyatwNDZUELxEWCUGnw2Hg9mloOKfS7j6zN3Ze2O5ww03f+TTkPqjKvQfK1PM+MGkfytk66wzmmalI6N2LxK2RYK8mMu3PfWZcHC/MqJlUQqqcFosGFBpHOYKeobFV3Zvm8n20M+X2E1t9LvxbJOCi334SzM56rgXe8Vhx9+S7xdi6ZIopsYfJ0H6kHGtFMcvCPY1h3xUItBRmnpGO5s8Q10bF8MZpkVWBlGGynqq1Twh1zxlC9S8LvjbZTYPG/PEkmj0qK1VRcAo8W2i5IZlj34CZqk9YL0L7nBH2QE14cprHiLbNo4qPKcIbbp5m810uqdfem9mJ6ZQaS0xw1seq6ItFGzliGGLK1Z1nFoxzA5KpXe8zbLBdQZW36SL3FDVHRrO3LZJY9bvTdYloM49liFleFMTpVhnX+yWi5jIdP/GlFm2a6WEz3ZU/o8jgNimHzqnzSFwoa74ZVVRY633HZ1tBsiqZV2+al+qcbf4t0hl6nyzN0l2foLs/QXZ6huzxDd3mG7vIM3cXvql+6Iv9iDQ6bVuZ9G6//AxsuRn8XGT83AAAAAElFTkSuQmCC;" vertex="1" parent="1">
          <mxGeometry x="625" y="160" width="62.12" height="30" as="geometry" />
        </mxCell>
      </root>
    </mxGraphModel>
  </diagram>
</mxfile>
